# xmcd CD database file
#
# Track frame offsets:
#	150
#	17961
#	41828
#	56545
#	83258
#	93462
#	124092
#	159526
#	182734
#
# Disc length: 2950 seconds
#
# Revision: 0
# Processed by: cddbd v1.5.1PL0 Copyright (c) Steve Scherf et al.
# Submitted via: CDex 1.51
#
DISCID=6b0b8409
DTITLE=Spiral Rhythm - Live at PSG 2004
DYEAR=2004
DGENRE=New Age
TTITLE0=Come and Dance
TTITLE1=Dance for Joy
TTITLE2=Dance, My Children, Dance
TTITLE3=The Moon is High
TTITLE4=Becoming
TTITLE5=Om (Var. 4)
TTITLE6=Let the Way (Abbi Spinner)
TTITLE7=Mysteries
TTITLE8=Three Witches
EXTD=YEAR: 2004
EXTT0=
EXTT1=
EXTT2=
EXTT3=
EXTT4=
EXTT5=
EXTT6=
EXTT7=
EXTT8=
PLAYORDER=
